<?xml version="1.0" standalone="no"?>
<!DOCTYPE svg PUBLIC "-//W3C//DTD SVG 20010904//EN"
 "http://www.w3.org/TR/2001/REC-SVG-20010904/DTD/svg10.dtd">
<svg version="1.0" xmlns="http://www.w3.org/2000/svg"
 width="2000.000000pt" height="971.000000pt" viewBox="0 0 2000.000000 971.000000"
 preserveAspectRatio="xMidYMid meet">

<g transform="translate(0.000000,971.000000) scale(0.100000,-0.100000)"
fill="#000000" stroke="none">
<path d="M6240 9529 c-201 -22 -381 -174 -442 -374 -92 -299 97 -614 408 -680
38 -8 87 -15 109 -15 175 0 359 102 457 254 54 83 79 172 79 276 1 163 -44
274 -156 385 -123 124 -274 175 -455 154z"/>
<path d="M8075 9529 c-126 -15 -221 -63 -315 -158 -104 -105 -150 -220 -150
-371 1 -160 44 -266 154 -376 342 -341 919 -105 920 376 0 326 -280 569 -609
529z"/>
<path d="M9935 9533 c-138 -15 -252 -67 -340 -157 -210 -213 -209 -545 4 -757
258 -257 696 -187 859 139 84 168 79 341 -15 513 -33 62 -146 170 -211 203
-85 43 -213 69 -297 59z"/>
<path d="M7159 9071 c-40 -41 -41 -98 -1 -142 62 -70 172 -24 172 72 0 57 -42
99 -100 99 -33 0 -48 -6 -71 -29z"/>
<path d="M8989 9071 c-52 -52 -34 -137 35 -166 105 -44 189 90 106 168 -43 39
-101 38 -141 -2z"/>
<path d="M7100 8604 c-195 -51 -350 -207 -395 -395 -68 -289 118 -586 406
-649 79 -18 229 -8 302 18 203 73 342 259 354 472 9 161 -42 295 -157 411
-132 134 -333 190 -510 143z"/>
<path d="M8955 8610 c-75 -15 -156 -52 -218 -99 -158 -118 -237 -310 -209
-502 38 -265 262 -459 529 -459 159 0 281 49 387 155 164 164 202 407 99 623
-37 77 -150 190 -230 231 -109 54 -244 74 -358 51z"/>
<path d="M6275 8181 c-33 -14 -56 -47 -62 -90 -5 -36 -2 -44 30 -76 44 -44 91
-48 136 -9 56 47 50 126 -11 164 -35 21 -60 24 -93 11z"/>
<path d="M8098 8175 c-65 -36 -73 -122 -17 -169 97 -82 226 51 142 144 -34 37
-85 47 -125 25z"/>
<path d="M9924 8171 c-36 -22 -58 -75 -48 -115 3 -14 20 -37 36 -51 96 -81
225 52 141 145 -36 40 -86 48 -129 21z"/>
<path d="M6160 7681 c-128 -41 -227 -114 -296 -218 -140 -211 -112 -494 67
-673 245 -245 651 -200 840 93 74 114 101 273 69 408 -44 186 -190 337 -379
393 -75 22 -229 21 -301 -3z"/>
<path d="M7979 7677 c-231 -79 -369 -270 -369 -513 0 -158 54 -280 173 -392
259 -243 696 -158 849 164 118 251 34 540 -201 688 -120 76 -316 99 -452 53z"/>
<path d="M9810 7677 c-91 -31 -156 -71 -220 -136 -99 -102 -150 -229 -150
-376 0 -151 47 -261 156 -373 140 -141 324 -192 518 -142 223 57 381 244 402
477 22 247 -153 493 -397 558 -84 23 -231 19 -309 -8z"/>
<path d="M7159 7241 c-57 -58 -29 -159 50 -176 98 -21 163 104 92 176 -23 23
-38 29 -71 29 -33 0 -48 -6 -71 -29z"/>
<path d="M8989 7241 c-39 -39 -40 -96 -4 -139 72 -86 209 -11 175 94 -25 76
-116 100 -171 45z"/>
<path d="M7110 6774 c-239 -51 -420 -275 -420 -519 l0 -55 135 0 135 0 0 -210
0 -210 38 -19 c67 -34 143 -51 232 -51 156 0 280 50 385 155 103 103 157 233
157 380 0 151 -54 280 -162 386 -134 132 -314 184 -500 143z"/>
<path d="M8944 6775 c-130 -28 -258 -115 -331 -225 -135 -201 -117 -475 43
-658 50 -57 59 -62 67 -32 5 19 14 20 266 20 l261 0 0 -37 c0 -21 -4 -55 -9
-76 -9 -36 -8 -37 12 -31 47 14 116 54 170 99 l56 46 3 157 3 157 63 3 62 3 0
52 c0 131 -61 270 -164 373 -136 136 -317 189 -502 149z"/>
<path d="M5262 6760 c-198 -52 -345 -208 -388 -412 -58 -271 116 -551 387
-623 71 -19 210 -19 284 0 181 47 333 199 380 380 31 120 15 264 -42 383 -38
78 -150 190 -232 231 -120 61 -257 75 -389 41z"/>
<path d="M10803 6770 c-423 -76 -590 -599 -288 -904 103 -105 235 -159 385
-159 150 0 282 54 385 159 276 278 166 751 -204 880 -77 27 -202 37 -278 24z"/>
<path d="M12620 6764 c-193 -42 -355 -195 -405 -385 -17 -63 -19 -208 -4 -261
l10 -38 69 0 70 0 0 -115 0 -114 46 -35 c213 -163 518 -142 709 49 299 299
144 812 -273 900 -82 18 -137 18 -222 -1z"/>
<path d="M6270 6342 c-40 -20 -60 -53 -60 -100 0 -43 55 -102 94 -102 22 0 26
4 26 30 0 29 2 30 45 30 l45 0 0 43 c0 51 -21 84 -66 103 -42 18 -42 18 -84
-4z"/>
<path d="M8103 6345 c-33 -14 -63 -59 -63 -95 0 -29 26 -76 52 -94 38 -27 95
-20 129 13 23 24 29 38 29 73 0 52 -21 85 -66 104 -40 17 -41 17 -81 -1z"/>
<path d="M9932 6345 c-39 -17 -66 -72 -57 -116 l7 -30 101 3 102 3 -1 42 c-1
49 -22 79 -71 99 -39 17 -40 17 -81 -1z"/>
<path d="M11782 6338 c-56 -15 -88 -89 -61 -141 28 -54 108 -76 155 -42 47 32
56 122 15 159 -27 24 -71 34 -109 24z"/>
<path d="M6171 5854 c-138 -37 -277 -150 -338 -275 -54 -108 -54 -122 -1 -177
86 -90 124 -172 130 -279 l3 -58 -59 -5 -59 -5 42 -52 c46 -58 124 -124 184
-154 47 -25 178 -59 224 -59 l33 0 0 390 0 390 236 0 235 0 -23 42 c-13 22
-46 65 -73 95 l-51 53 -162 0 -162 0 0 55 0 55 -52 -1 c-29 0 -77 -7 -107 -15z"/>
<path d="M7995 5851 c-89 -25 -163 -69 -230 -136 -52 -52 -125 -164 -125 -192
0 -5 37 3 83 19 163 54 436 79 646 59 l113 -11 44 31 c24 16 44 36 44 43 0 22
-101 108 -167 143 -33 18 -86 39 -118 48 -77 20 -214 18 -290 -4z"/>
<path d="M11683 5845 c-189 -51 -344 -210 -388 -397 -43 -183 10 -365 145
-500 71 -71 175 -130 253 -144 l37 -6 0 171 0 171 -120 0 -120 0 0 215 0 214
132 3 132 3 32 120 c18 66 35 130 39 143 5 21 2 22 -42 21 -27 0 -72 -7 -100
-14z"/>
<path d="M10110 5625 l0 -226 68 52 c68 53 187 114 242 125 16 4 30 12 30 19
0 19 -70 105 -121 149 -46 40 -171 106 -201 106 -17 0 -18 -16 -18 -225z"/>
<path d="M9460 5495 c-9 -31 -15 -91 -15 -160 0 -71 5 -126 15 -155 l15 -45 3
103 c1 56 1 148 0 205 l-3 102 -15 -50z"/>
<path d="M7178 5424 c-35 -19 -48 -43 -48 -93 0 -110 145 -149 195 -51 20 39
19 69 -5 108 -31 51 -89 65 -142 36z"/>
<path d="M9015 5429 c-27 -16 -55 -51 -55 -70 0 -9 16 -44 37 -78 31 -52 40
-61 65 -61 96 0 144 109 81 180 -31 35 -94 49 -128 29z"/>
<path d="M12720 5325 c0 -116 3 -120 61 -89 68 35 71 135 5 175 -61 37 -66 31
-66 -86z"/>
<path d="M8091 5257 c-129 -41 -173 -225 -80 -332 68 -77 251 -88 350 -22 66
43 95 144 69 239 -13 45 -75 103 -127 117 -48 14 -167 12 -212 -2z"/>
<path d="M10297 5126 c-102 -28 -170 -121 -183 -250 l-7 -69 34 7 c66 12 158
66 221 129 58 58 127 161 115 174 -8 8 -79 23 -107 22 -14 0 -47 -6 -73 -13z"/>
<path d="M7124 4936 c-33 -8 -84 -24 -112 -36 l-52 -22 0 -464 0 -464 38 -19
c59 -30 141 -51 209 -52 59 -2 64 0 110 41 26 23 66 53 89 66 l40 24 -51 53
c-69 71 -97 132 -103 221 -6 97 21 167 95 247 41 44 77 70 134 98 l79 38 -60
46 c-62 48 -132 130 -158 184 -8 18 -22 35 -31 38 -35 14 -169 14 -227 1z"/>
<path d="M9035 4898 c-53 -163 -198 -282 -412 -339 -94 -25 -93 -24 -93 -140
l0 -76 148 -6 c163 -7 236 -22 325 -69 107 -57 201 -185 229 -310 6 -29 13
-55 14 -56 6 -9 143 72 187 109 l47 41 0 358 0 358 -47 41 c-93 79 -244 140
-349 141 -29 0 -33 -4 -49 -52z"/>
<path d="M12665 4944 c-96 -15 -219 -67 -278 -120 l-29 -25 4 -197 c3 -173 5
-202 23 -237 32 -64 69 -79 212 -83 l123 -4 0 -183 0 -183 -31 -11 c-18 -6
-41 -11 -52 -11 -16 0 -18 -3 -10 -11 17 -17 180 -23 243 -10 41 9 65 22 101
56 26 25 64 52 83 62 20 9 36 20 36 23 0 3 -13 16 -28 27 -77 57 -141 208
-127 302 17 117 106 231 228 291 37 18 67 34 67 35 0 1 -44 46 -97 99 -100
101 -150 133 -243 160 -60 16 -177 27 -225 20z"/>
<path d="M14676 4883 c-23 -69 -78 -146 -139 -195 -95 -75 -258 -139 -395
-154 -68 -7 -65 -3 -77 -95 -3 -26 -3 -59 1 -73 l6 -26 152 0 c180 0 267 -11
361 -45 132 -47 239 -161 280 -295 10 -33 22 -60 26 -60 18 0 135 119 169 171
20 31 44 83 54 116 l18 60 -25 75 c-30 84 -57 228 -57 297 0 41 -6 53 -45 98
-69 79 -181 146 -282 167 -30 7 -32 6 -47 -41z"/>
<path d="M10511 4781 c-126 -131 -179 -325 -136 -496 30 -117 107 -240 186
-295 l29 -21 0 435 c0 313 -3 436 -11 436 -6 0 -37 -27 -68 -59z"/>
<path d="M11220 4394 l0 -445 29 20 c90 65 178 208 202 329 26 136 -11 298
-95 416 -40 56 -112 126 -130 126 -3 0 -6 -201 -6 -446z"/>
<path d="M4876 4518 c-13 -49 -6 -143 13 -178 36 -68 186 -119 310 -105 142
16 201 52 201 122 0 69 -61 95 -345 148 -77 14 -147 28 -156 31 -11 3 -19 -3
-23 -18z"/>
<path d="M6300 4513 c-60 -18 -97 -71 -85 -123 8 -36 58 -80 91 -80 24 0 24 1
24 99 0 55 -3 102 -7 104 -5 2 -15 2 -23 0z"/>
<path d="M8125 4513 c-40 -9 -75 -54 -75 -96 0 -69 10 -77 100 -77 89 0 100 8
100 74 0 61 -65 112 -125 99z"/>
<path d="M13609 4471 c-38 -38 -40 -84 -4 -107 15 -10 55 -19 94 -22 64 -4 70
-3 81 18 32 59 -27 140 -102 140 -30 0 -46 -7 -69 -29z"/>
<path d="M11716 4438 c-5 -16 -5 -40 0 -55 l8 -28 4 28 c2 15 2 39 0 55 l-4
27 -8 -27z"/>
<path d="M6175 4011 c-33 -9 -85 -30 -115 -46 -69 -37 -177 -144 -213 -212
-34 -65 -67 -190 -67 -258 0 -68 33 -194 67 -258 16 -29 58 -82 94 -118 148
-149 369 -198 563 -125 345 130 458 551 227 844 l-41 52 -180 0 -180 0 0 70 0
70 -47 -1 c-27 0 -75 -8 -108 -18z"/>
<path d="M11720 4023 c-98 -15 -223 -84 -300 -164 -93 -97 -140 -219 -140
-364 0 -156 50 -275 161 -385 176 -176 426 -219 647 -113 77 37 190 150 231
230 86 171 78 382 -19 534 -52 79 -75 99 -117 99 -113 1 -270 59 -346 129 -44
40 -56 44 -117 34z"/>
<path d="M10110 3950 l0 -60 -250 0 -250 0 -41 -52 c-152 -192 -165 -444 -35
-641 186 -280 593 -320 831 -82 163 163 205 417 103 620 -55 109 -165 210
-276 254 -80 32 -82 30 -82 -39z"/>
<path d="M7873 3871 c-50 -23 -74 -57 -80 -115 -8 -66 25 -129 81 -155 40 -20
60 -21 327 -21 275 0 286 1 329 23 53 26 81 70 82 127 1 54 -65 144 -113 154
-17 3 -156 6 -308 6 -249 0 -280 -2 -318 -19z"/>
<path d="M10795 3874 c56 -17 233 -14 275 4 19 8 -18 11 -150 10 -170 0 -173
0 -125 -14z"/>
<path d="M13535 3879 c-65 -20 -95 -64 -95 -140 0 -66 26 -112 80 -140 31 -17
62 -19 323 -19 303 0 357 7 357 46 0 32 -69 159 -115 212 l-47 52 -236 -1
c-130 0 -250 -5 -267 -10z"/>
<path d="M5351 3587 c-31 -19 -50 -54 -51 -95 0 -43 55 -102 94 -102 73 0 127
70 106 135 -6 18 -19 40 -30 50 -25 22 -89 29 -119 12z"/>
<path d="M10855 3588 c-81 -44 -72 -158 15 -203 91 -47 187 43 142 135 -31 63
-106 96 -157 68z"/>
<path d="M12694 3590 c-35 -14 -64 -59 -64 -101 0 -47 42 -93 101 -110 52 -16
104 6 124 53 20 49 -7 115 -60 145 -42 24 -67 27 -101 13z"/>
<path d="M7157 3560 c-35 -41 -36 -88 -1 -129 23 -28 86 -52 100 -38 3 2 -5
21 -17 42 -13 21 -30 65 -39 97 l-16 60 -27 -32z"/>
<path d="M9117 3444 c-50 -56 -46 -69 10 -34 30 18 50 56 41 78 -1 5 -25 -15
-51 -44z"/>
<path d="M7701 3198 c7 -13 40 -51 75 -85 195 -192 502 -204 716 -29 29 24 68
64 86 90 l33 46 -461 0 -461 0 12 -22z"/>
<path d="M13226 3188 c26 -51 133 -150 199 -185 201 -106 450 -77 612 70 55
51 113 121 113 139 0 4 -212 8 -470 8 l-471 0 17 -32z"/>
<path d="M5319 3110 c-160 -25 -317 -137 -389 -280 -43 -86 -60 -155 -60 -250
0 -410 427 -662 794 -467 135 72 244 230 268 390 53 351 -260 661 -613 607z"/>
<path d="M7154 3110 c-257 -35 -454 -265 -454 -530 0 -243 163 -454 400 -520
64 -18 214 -16 278 3 283 86 445 365 373 647 -25 101 -67 174 -141 249 -115
116 -288 173 -456 151z"/>
<path d="M8950 3104 c-96 -20 -185 -70 -261 -144 -108 -106 -159 -229 -159
-383 0 -208 116 -392 303 -481 121 -57 232 -70 356 -41 237 56 401 249 418
490 18 265 -167 504 -432 560 -85 18 -140 18 -225 -1z"/>
<path d="M10740 3091 c-215 -69 -362 -254 -377 -473 -12 -164 43 -306 166
-429 118 -118 237 -169 397 -169 343 0 598 324 519 659 -46 192 -204 359 -394
415 -75 22 -238 21 -311 -3z"/>
<path d="M12581 3094 c-80 -21 -147 -61 -222 -132 -242 -227 -219 -610 49
-815 115 -89 222 -127 357 -127 146 0 258 45 366 148 120 112 176 256 166 422
-14 234 -179 433 -416 504 -68 20 -225 20 -300 0z"/>
<path d="M14525 3090 c-117 -16 -238 -81 -319 -171 -98 -109 -139 -216 -139
-364 1 -112 22 -188 84 -291 65 -108 208 -208 336 -234 80 -17 225 -8 296 18
151 55 274 177 329 327 30 83 36 228 13 315 -68 265 -326 437 -600 400z"/>
<path d="M6248 2653 c-32 -34 -42 -70 -29 -105 28 -73 117 -93 172 -39 65 66
20 171 -73 171 -35 0 -50 -6 -70 -27z"/>
<path d="M8079 2651 c-23 -24 -29 -38 -29 -74 0 -38 5 -49 31 -71 69 -59 169
-15 169 74 0 58 -42 100 -100 100 -33 0 -48 -6 -71 -29z"/>
<path d="M9929 2665 c-34 -18 -53 -65 -45 -108 17 -90 139 -112 187 -33 23 38
24 69 2 106 -28 49 -91 64 -144 35z"/>
<path d="M11750 2653 c-59 -53 -44 -136 32 -183 41 -25 74 -25 114 -1 68 41
63 130 -8 185 -47 36 -98 35 -138 -1z"/>
<path d="M13635 2648 c-35 -19 -55 -52 -55 -91 0 -31 7 -46 34 -73 52 -52 127
-39 162 27 44 86 -56 184 -141 137z"/>
<path d="M11775 2169 c-310 -36 -528 -340 -461 -642 25 -110 69 -191 145 -268
107 -107 231 -159 380 -159 152 0 262 44 371 146 221 209 226 557 9 770 -122
122 -272 173 -444 153z"/>
<path d="M13615 2169 c-206 -24 -386 -174 -448 -374 -31 -101 -29 -235 5 -331
79 -224 274 -364 508 -364 193 0 349 83 454 242 63 94 80 157 80 293 0 142
-17 200 -90 307 -113 166 -303 251 -509 227z"/>
<path d="M10868 1725 c-35 -20 -48 -44 -48 -90 0 -47 13 -71 50 -90 39 -20 69
-19 107 5 54 32 61 116 15 163 -26 25 -90 31 -124 12z"/>
<path d="M12715 1728 c-35 -19 -55 -52 -55 -91 -1 -127 175 -144 206 -20 20
77 -80 150 -151 111z"/>
<path d="M14551 1726 c-31 -17 -50 -53 -51 -94 0 -26 9 -43 35 -69 32 -32 40
-35 77 -30 60 8 93 45 93 103 0 39 -5 50 -33 75 -36 32 -80 38 -121 15z"/>
<path d="M10755 1226 c-249 -80 -407 -334 -367 -591 33 -214 202 -399 407
-445 80 -18 211 -14 286 9 175 55 321 213 364 393 43 185 -10 365 -149 504
-110 110 -220 154 -381 153 -66 0 -109 -6 -160 -23z"/>
<path d="M12610 1232 c-146 -49 -269 -151 -329 -273 -33 -68 -61 -178 -61
-244 0 -66 28 -176 62 -245 60 -124 201 -238 343 -277 70 -19 212 -18 282 2
167 48 304 176 365 340 18 49 22 81 22 180 0 107 -3 127 -26 188 -58 146 -174
263 -318 319 -79 30 -262 36 -340 10z"/>
<path d="M14439 1227 c-141 -48 -256 -146 -316 -270 -44 -90 -56 -140 -56
-242 0 -152 47 -268 153 -376 105 -107 234 -161 386 -160 149 0 276 53 379
157 102 102 155 233 155 379 0 44 -7 105 -15 135 -49 186 -200 338 -380 385
-89 23 -226 19 -306 -8z"/>
<path d="M11788 804 c-35 -19 -48 -43 -48 -91 0 -47 19 -76 59 -93 84 -35 168
42 140 127 -20 62 -93 89 -151 57z"/>
<path d="M13628 803 c-14 -9 -31 -27 -37 -40 -48 -106 74 -202 159 -125 94 84
-14 231 -122 165z"/>
</g>
</svg>
    